<svg xmlns="http://www.w3.org/2000/svg" id="mermaid-1577529950139" width="2299" viewBox="-8 -6 1149.5 231.563"><style>#mermaid-1577529950139 .noteText,#mermaid-1577529950139 g.stateGroup text{fill:#000;stroke:none;font-family:&apos;trebuchet ms&apos;,verdana,arial;font-family:var(--mermaid-font-family);font-size:14px}#mermaid-1577529950139 g.stateGroup text{fill:#999;font-size:10px}#mermaid-1577529950139 #dependencyEnd{fill:#999;stroke:#999;stroke-width:1}#mermaid-1577529950139 g.stateGroup .state-title{font-weight:bolder;fill:#000}#mermaid-1577529950139 g.stateGroup rect{fill:#eee;stroke:#999}#mermaid-1577529950139 g.stateGroup line{stroke:#999;stroke-width:1}#mermaid-1577529950139 .transition{stroke:#999;stroke-width:1;fill:none}#mermaid-1577529950139 .stateGroup .composit{fill:#fff;border-bottom:1px}#mermaid-1577529950139 .state-note{stroke:#770;fill:#ffa}#mermaid-1577529950139 .state-note text{fill:#000;stroke:none;font-size:10px}:root{--mermaid-font-family: &apos;&quot;trebuchet ms&quot;, verdana, arial&apos;;--mermaid-font-family: &quot;Comic Sans MS&quot;, &quot;Comic Sans&quot;, cursive;--mermaid-font-family: &quot;trebuchet ms&quot;, verdana, arial}</style><style>#mermaid-1577529950139{color:rgba(0,0,0,.65)}</style><defs><marker id="dependencyEnd" markerHeight="28" markerWidth="20" orient="auto" refX="19" refY="7"><path d="M 19,7 L9,13 L14,7 L9,1 Z"/></marker></defs><g id="Process" class="stateGroup" data-x-shift="0" transform="translate(0,35 )"><rect width="1133.5" height="215.563" x="0" y="-33" rx="5"/><rect width="1133.5" height="30" x="0" y="-33" rx="5"/><rect width="1133.5" height="188.563" x="0" y="-9" class="composit" rx="0"/><g id="start351" class="stateGroup" data-x-shift="0" transform="translate(0,43.53125 )"><circle cx="13" cy="13" r="5" fill="#000" stroke="#000"/></g><g id="Brainstorm" class="stateGroup" data-x-shift="111.875" transform="translate(111.875,35.03125 )"><rect width="67.25" height="27" x="8" y="8" rx="5"/><text x="16" y="26" class="state-title" font-size="24">Brainstorm</text></g><g id="Brainstorm-note" class="state-note" data-x-shift="56" transform="translate(56,128.03125 )"><rect width="179" height="32.5" x="0" y="8"/><g><text class="noteText" text-anchor="start"><tspan x="10" y="25">Here you will come up with an Idea</tspan></text></g></g><g id="Build" class="stateGroup" data-x-shift="361.719" transform="translate(361.71875,35.03125 )"><rect width="39.609" height="27" x="8" y="8" rx="5"/><text x="16" y="26" class="state-title" font-size="24">Build</text></g><g id="Build-note" class="state-note" data-x-shift="291" transform="translate(291,128.03125 )"><rect width="181.047" height="32.5" x="0" y="8"/><g><text class="noteText" text-anchor="start"><tspan x="10" y="25">Here you will create your prototype</tspan></text></g></g><g id="Prepare" class="stateGroup" data-x-shift="690.406" transform="translate(690.40625,35 )"><rect width="53.063" height="27.063" x="8" y="8" rx="5"/><text x="16" y="26" class="state-title" font-size="24">Prepare</text></g><g id="Prepare-note" class="state-note" data-x-shift="528.047" transform="translate(528.046875,128.0625 )"><rect width="377.781" height="32.5" x="0" y="8"/><g><text class="noteText" text-anchor="start"><tspan x="10" y="25">Here you will do your write-up and prepare to pitch with the pitching workshop</tspan></text></g></g><g id="Pitch" class="stateGroup" data-x-shift="1023.727" transform="translate(1023.7265625,35.03125 )"><rect width="39.875" height="27" x="8" y="8" rx="5"/><text x="16" y="26" class="state-title" font-size="24">Pitch</text></g><g id="Pitch-note" class="state-note" data-x-shift="961.828" transform="translate(961.828125,128.03125 )"><rect width="163.672" height="32.5" x="0" y="8"/><g><text class="noteText" text-anchor="start"><tspan x="10" y="25">Here you will pitch your project</tspan></text></g></g><path id="edge939" marker-end="url(#dependencyEnd)" d="M26,56.53125L27.666666666666668,56.53125C29.333333333333332,56.53125,32.666666666666664,56.53125,36,56.53125C39.333333333333336,56.53125,42.666666666666664,56.53125,55.3125,56.53125C67.95833333333333,56.53125,89.91666666666667,56.53125,100.89583333333333,56.53125L111.875,56.53125" class="transition"/><path id="edge940" marker-end="url(#dependencyEnd)" d="M195.125,56.53125L206.10416666666666,56.53125C217.08333333333334,56.53125,239.04166666666666,56.53125,251.6875,56.53125C264.3333333333333,56.53125,267.6666666666667,56.53125,271,56.53125C274.3333333333333,56.53125,277.6666666666667,56.53125,292.7864583333333,56.53125C307.90625,56.53125,334.8125,56.53125,348.265625,56.53125L361.71875,56.53125" class="transition"/><path id="edge941" marker-end="url(#dependencyEnd)" d="M417.328125,56.53125L430.78125,56.53125C444.234375,56.53125,471.140625,56.53125,486.2604166666667,56.53125C501.3802083333333,56.53125,504.7135416666667,56.53125,508.046875,56.53125C511.3802083333333,56.53125,514.7135416666666,56.53125,545.1067708333334,56.53125C575.5,56.53125,632.953125,56.53125,661.6796875,56.53125L690.40625,56.53125" class="transition"/><path id="edge942" marker-end="url(#dependencyEnd)" d="M759.46875,56.53125L788.1953125,56.53125C816.921875,56.53125,874.375,56.53125,904.7682291666666,56.53125C935.1614583333334,56.53125,938.4947916666666,56.53125,941.828125,56.53125C945.1614583333334,56.53125,948.4947916666666,56.53125,962.14453125,56.53125C975.7942708333334,56.53125,999.7604166666666,56.53125,1011.7434895833334,56.53125L1023.7265625,56.53125" class="transition"/><text x="545.109" y="-15" class="state-title" font-size="24">Process</text><line x1="0" x2="1133.5" y1="-9" y2="-9" class="descr-divider"/></g></svg>